<svg xmlns="http://www.w3.org/2000/svg" width="512px" height="512px">
    <path id="home-3-icon" d="M118.032,279.715l30.494,161.153h217.371l30.494-162.113L257.212,158.18L118.032,279.715zM256.218,401.649c-10.157,0-18.392-8.234-18.392-18.392c0-10.159,8.234-18.394,18.392-18.394c10.159,0,18.394,8.234,18.394,18.394C274.611,393.415,266.377,401.649,256.218,401.649z M304.502,292.675c0,26.667-21.617,48.284-48.284,48.284c-26.666,0-48.283-21.617-48.283-48.284c0-26.666,21.617-48.283,48.283-48.283C282.885,244.392,304.502,266.009,304.502,292.675zM462,256.001l-27.148,27.149L257.18,125.366L77.084,283.213L50,256L257.244,71.132L462,256.001z"/>
</svg>